PathFileType	4	(X/Y/Z)	OpenSim_Sub02_CSStiffKnee_Gyro.trc
DataRate	CameraRate	NumFrames	NumMarkers	Units	OrigDataRate	OrigDataStartFrame	OrigNumFrames
100	100	27	8	m	100	1	6891
Frame#	Time	torso_imu_offset_imu	pelvis_imu_offset_imu	tibia_r_imu_offset_imu	femur_r_imu_offset_imu	tibia_l_imu_offset_imu	femur_l_imu_offset_imu	toes_r_imu_offset_imu	toes_l_imu_offset_imu
				X1	Y1	Z1	X2	Y2	Z2	X3	Y3	Z3	X4	Y4	Z4	X5	Y5	Z5	X6	Y6	Z6	X7	Y7	Z7	X8		Y8	Z8	

1	0	0.01893342	0.01581641	-0.02387057	0.00123452	-0.01058203	0.00025131	-0.00657340	0.00005401	-0.00863657	-0.00834449	0.00902143	0.00888522	0.00122214	0.00847454	0.00477045	-0.00436753	0.00242457	0.00347429	-0.00005837	0.00241547	0.00071899	-0.00493837	0.01252276	0.00311492
2	0.01000000	0.01629436	0.01080100	-0.02258994	-0.00123675	-0.01440305	0.00149622	-0.01422271	-0.00173468	-0.01112628	-0.00652590	0.00895623	0.01179537	-0.00278985	0.01000976	0.00418787	0.00102310	0.00094669	0.00266311	-0.00147798	0.00344016	0.00048501	-0.00485268	0.01159969	0.00246346
3	0.02000000	0.01592547	0.00926939	-0.02465282	-0.00390734	-0.01584288	0.00059673	-0.01818166	-0.00104726	-0.01376291	-0.00104439	0.01149004	0.01390342	0.00299927	0.01593965	0.00695401	0.00443971	0.00057775	0.00412077	-0.00181880	0.00092282	-0.00186790	-0.00557984	0.01163944	0.00227482
4	0.03000000	0.01356665	0.00655939	-0.02445207	-0.00224682	-0.01782872	0.00166253	-0.00295072	0.00397375	-0.01448790	0.00178747	0.00267552	0.01230564	0.00260203	0.00854513	0.00582653	0.00642178	0.00083222	-0.00571915	0.00004144	0.00293535	0.00264534	-0.00537820	0.01693657	0.00354904
5	0.04000000	0.01283318	0.00662861	-0.02654740	-0.00280718	-0.01797724	0.00399124	0.00061146	0.00195522	-0.01543532	0.00533089	0.00428066	0.01193510	-0.00318006	0.01131944	0.00612944	0.00616284	-0.00414990	-0.00459361	-0.00181813	0.00494595	0.00162908	-0.00301353	0.01094840	0.00093497
6	0.05000000	0.00940820	0.00812087	-0.02492129	-0.00380656	-0.01802933	0.00603037	0.00626616	0.00344203	-0.01249571	0.00713875	0.00782000	0.01335070	0.00223103	0.01526216	0.00632078	0.00621530	0.00068049	-0.00838230	0.00290487	0.00373541	-0.00219398	-0.00335251	0.01474030	0.00053381
7	0.06000000	0.00702861	0.00907223	-0.02300811	0.00103942	-0.01903349	0.00474049	0.01094505	-0.00315950	-0.01233320	0.01133947	0.00509733	0.01237998	0.00175898	0.00949662	0.00932769	0.00612475	-0.00297037	-0.00540490	-0.00013453	0.00414719	0.00087345	-0.00680565	0.01516106	0.00123204
8	0.07000000	0.01505067	-0.00307217	-0.02377813	0.00345282	-0.02282579	0.00369058	0.01222633	0.00299794	-0.00891156	0.01542814	0.00669365	0.01067494	0.00830770	0.00927482	0.00574686	0.01256907	-0.00262423	-0.00624366	0.00057754	0.00190902	0.00165316	-0.00332250	0.01273362	0.00346206
9	0.08000000	0.01737529	-0.00723074	-0.02577240	0.00571962	-0.02255776	0.00658886	0.01188449	0.00315109	-0.00651967	0.02000072	0.00578978	0.00788647	0.00795917	0.01342977	0.00706445	0.01324947	-0.00326488	-0.00552531	-0.00095671	0.00215079	0.00074475	-0.00524780	0.01446508	0.00114468
10	0.09000000	0.01422601	-0.00239918	-0.02892290	0.00869470	-0.02119991	0.00605068	0.01801721	0.00182956	-0.00725402	0.01727122	0.00535634	0.00805980	0.01040208	0.01253059	0.00394756	0.01485315	-0.00356607	-0.00381337	-0.00165006	0.00306932	0.00176634	-0.00379419	0.01271520	0.00130856
11	0.10000000	0.01400899	-0.00589034	-0.01903606	0.00628471	-0.02090038	0.00825892	0.01406966	0.01079736	-0.01132700	0.01599325	0.00416537	0.00706880	0.01337495	0.00946344	0.00578259	0.01588652	-0.00195427	-0.00372860	-0.00110790	0.00160141	0.00090857	-0.00358259	0.01358255	0.00296097
12	0.11000000	0.01795968	-0.00770443	-0.00690661	0.00945532	-0.02032718	0.01048221	0.01096378	0.01083905	-0.00596874	0.01563470	0.00573765	0.00901747	0.00780737	0.00766688	0.00713121	0.01452341	0.00231332	-0.00587013	-0.00380724	0.00250409	0.00404743	-0.00682310	0.01501393	0.00290046
13	0.12000000	0.01771966	-0.00482230	-0.01695727	0.00718542	-0.02070858	0.00798423	0.01550189	-0.00619944	-0.00549453	0.01429836	0.00655952	0.01061841	0.00829338	0.01033847	0.00601743	0.01456175	0.00161872	-0.00807364	0.00030230	0.00356556	0.00147572	-0.00312731	0.01381638	-0.00344926
14	0.13000000	0.01892289	-0.01422148	-0.02027799	0.00899618	-0.01781388	0.00615363	-0.00528742	-0.00487995	-0.00962460	0.01260196	0.00603372	0.00732693	0.00971068	0.00727888	0.00370142	0.00882268	-0.00568986	-0.00659775	-0.00101048	-0.00082628	-0.00105635	-0.00142352	0.01243888	0.00343961
15	0.14000000	0.01501567	-0.01445970	-0.02364488	0.00782632	-0.02058915	0.00534087	-0.01181657	0.00010957	-0.00486389	0.00538423	0.00860582	0.01120882	0.00867807	0.01169784	0.00484540	0.00855955	-0.00280387	-0.00678329	-0.00011565	0.00004984	0.00270411	-0.00546546	0.01403179	0.00083594
16	0.15000000	0.02029673	-0.01496110	-0.02102440	0.00916876	-0.01457486	0.00690083	-0.00849524	-0.00570095	-0.00616864	0.00917355	0.01201635	0.00793799	0.00796407	0.00840423	0.00330522	0.00830012	-0.00400957	-0.00692327	-0.00046809	0.00231880	0.00272785	-0.00459703	0.01121117	0.00071944
17	0.16000000	0.02080164	-0.01552373	-0.01923510	0.00647079	-0.01305231	0.00593452	-0.00827049	0.00186702	-0.00919459	0.01461950	0.01233047	0.00724574	0.00155212	0.00772469	0.00113368	0.00778156	-0.00614252	-0.00690591	-0.00019680	0.00372855	0.00219242	-0.00368857	0.01546224	0.00245389
18	0.17000000	0.02022755	-0.01221204	-0.02244506	0.00034272	-0.01282980	0.00434983	0.00503342	0.00473073	-0.00647229	0.00797018	0.01709160	0.00879647	-0.00284188	0.01202915	0.00193545	0.00736936	-0.00529584	-0.00547649	0.00038744	0.00242032	0.00009953	-0.00344391	0.01398139	0.00164035
19	0.18000000	0.02251725	-0.01283993	-0.02445863	0.00097946	-0.01388937	0.00240110	0.01583099	0.00380794	-0.00052813	0.00636092	0.01586392	0.01202629	0.00330005	0.00931096	0.00056117	0.00564896	-0.00696450	-0.00586672	0.00254571	0.00592449	0.00040386	-0.00372218	0.01278251	0.00001471
20	0.19000000	0.02276119	-0.01094827	-0.01536724	0.00174907	-0.00882014	0.00093912	0.01011471	0.00330849	-0.00238123	0.00097908	0.01220402	0.00958666	0.00484854	0.00393161	0.00238249	0.00598668	-0.00260052	-0.00364194	-0.00162570	0.00273854	0.00113691	-0.00504022	0.01509601	0.00109697
21	0.20000000	0.02085014	-0.00988591	-0.01942839	0.00401605	-0.00661282	-0.00189190	0.00809634	0.00489448	-0.00407877	-0.00101125	0.01370174	0.01318275	0.00845842	0.00946629	0.00282633	0.00270267	-0.00407752	-0.00536958	0.00281113	0.00438932	-0.00109208	-0.00143597	0.00989601	-0.00206557
22	0.21000000	0.02190759	-0.01500418	-0.02311995	0.00895842	-0.01012139	0.00072255	0.00462944	0.00466371	0.00469289	-0.00361913	0.01294847	0.01173855	0.00635295	0.00537468	-0.00267672	0.00091240	-0.00438143	-0.00553043	-0.00091223	0.00513124	0.00516359	-0.00348174	0.01607071	-0.00146386
23	0.22000000	0.02180005	-0.01407776	-0.02405935	0.00890308	-0.00357977	-0.00328825	0.00522144	0.00007546	0.00142277	-0.00088640	0.01302761	0.00833110	0.00874846	0.00394124	0.00128001	-0.00247768	-0.00225291	-0.00106211	-0.00053174	0.00197736	0.00006770	0.00045644	0.01388379	-0.00136711
24	0.23000000	0.02243141	-0.02020962	-0.02295261	0.00524471	-0.00444912	-0.00150626	-0.00037427	0.00094595	0.00042564	-0.00445895	0.01254202	0.01063845	0.00824951	0.00493209	-0.00154859	-0.00313675	-0.00200452	-0.00559051	-0.00132023	0.00660721	0.00211570	-0.00291403	0.01643872	-0.00088630
25	0.24000000	0.02149248	-0.01685385	-0.02305918	0.00685458	-0.00409761	0.00068336	0.00365366	0.00503581	0.00346158	-0.00483728	0.01149240	0.00933433	0.00396365	0.00401553	-0.00269307	-0.00512779	-0.00378393	-0.00294580	0.00073275	0.00828203	0.00247726	-0.00244914	0.01677015	-0.00238456
26	0.25000000	0.02101807	-0.01893178	-0.02347632	0.00697316	-0.00280223	-0.00123560	0.00996524	0.00177959	0.00432915	-0.00847177	0.01425555	0.00944460	0.00785983	0.00145554	-0.00190287	-0.00379135	-0.00668244	-0.00707944	0.00151300	0.00756877	0.00095501	-0.00292001	0.01574812	-0.00333098
27	0.26000000	0.01796339	-0.01825425	-0.02477944	0.01031509	-0.00398031	-0.00060414	0.01103334	0.00223072	0.00339315	-0.00654265	0.01783263	0.01178964	0.00907215	0.00411045	-0.00482977	-0.00277777	-0.00625797	-0.00689487	-0.00016958	0.01116601	0.00137092	-0.00080329	0.01485654	-0.00310535
